<svg width="181" height="181" xmlns="http://www.w3.org/2000/svg">
 <defs>
  <linearGradient id="a" x1="0" x2="1" y1="0" y2="1">
   <stop offset="0%" stop-color="#0df"/>
   <stop offset="100%" stop-color="#ff00d4"/>
  </linearGradient>
 </defs>
 <g>
  <title>Layer 1</title>
  <g xmlns="http://www.w3.org/2000/svg" id="svg_1">
   <path d="m47.85104,12.05663c-27.617,0 -50.084,-22.468 -50.084,-50.083c0,-27.617 22.467,-50.084 50.084,-50.084c27.616,0 50.083,22.468 50.083,50.084c0,27.615 -22.468,50.083 -50.083,50.083" transform="translate(4.042, 159.493) scale(1.81015)" stroke-width="0" stroke-dashoffset="0" stroke-miterlimit="4" fill="#2c3e50" fill-rule="nonzero" opacity="0.42" id="svg_2"/>
   <path d="m47.54907,-0.31265c-27.617,0 -50.084,-22.468 -50.084,-50.083c0,-27.617 22.467,-50.084 50.084,-50.084c27.616,0 50.083,22.468 50.083,50.084c0,27.615 -22.468,50.083 -50.083,50.083" transform="translate(10.593, 172.178) scale(1.58713)" stroke-width="0" stroke-dashoffset="0" stroke-miterlimit="4" fill="#000" fill-rule="nonzero" opacity="0.25" id="svg_3"/>
   <g transform="translate(94.55, 251.534) scale(1.39338)" id="svg_4">
    <path d="m-2.79173,-64.2727c-27.617,0 -50.084,-22.468 -50.084,-50.083c0,-27.617 22.467,-50.084 50.084,-50.084c27.616,0 50.083,22.468 50.083,50.084c0,27.615 -22.468,50.083 -50.083,50.083" stroke-width="0" stroke-dashoffset="0" stroke-miterlimit="4" fill="url(#a)" fill-rule="nonzero" id="svg_5"/>
   </g>
   <path d="m73.5639,-105.08616a3.84,3.84 0 0 0 2.328,-3.562a3.84,3.84 0 0 0 -2.328,-3.563l-9.434,-4.133a29.9,29.9 0 0 1 -15.449,-15.449l-4.132,-9.433a3.84,3.84 0 0 0 -3.563,-2.329a3.84,3.84 0 0 0 -3.562,2.329l-4.133,9.437a29.92,29.92 0 0 1 -15.45,15.45l-9.433,4.132a3.84,3.84 0 0 0 -2.328,3.562c0,1.567 0.895,2.934 2.328,3.563l9.434,4.133a29.9,29.9 0 0 1 15.449,15.449l4.133,9.433a3.84,3.84 0 0 0 3.562,2.328c1.57,0 2.934,-0.894 3.563,-2.328l4.132,-9.433a29.9,29.9 0 0 1 15.45,-15.45l9.433,-4.128l0,-0.008zm-28.551,17.977l-4.027,9.2l-4.028,-9.2a33.93,33.93 0 0 0 -17.508,-17.512l-9.199,-4.027l9.2,-4.028a33.9,33.9 0 0 0 17.507,-17.508l4.028,-9.199l4.027,9.2a33.9,33.9 0 0 0 17.512,17.506l9.2,4.029l-9.2,4.027a33.92,33.92 0 0 0 -17.512,17.512m39.719,-52.277l-2.574,-1.125a17.96,17.96 0 0 1 -9.27,-9.27l-1.125,-2.574c-0.316,-0.726 -1.039,-1.199 -1.832,-1.199s-1.515,0.469 -1.832,1.2l-1.125,2.573a17.96,17.96 0 0 1 -9.27,9.27l-2.573,1.125a1.997,1.997 0 0 0 0,3.664l2.574,1.125a17.96,17.96 0 0 1 9.27,9.27l1.124,2.574c0.317,0.726 1.04,1.199 1.832,1.199s1.516,-0.469 1.832,-1.2l1.125,-2.573a17.96,17.96 0 0 1 9.27,-9.27l2.574,-1.125a1.997,1.997 0 0 0 0,-3.664m-14.801,10.992a21.9,21.9 0 0 0 -9.16,-9.16a21.9,21.9 0 0 0 9.16,-9.16a21.9,21.9 0 0 0 9.16,9.16a21.9,21.9 0 0 0 -9.16,9.16m-1.504,34.84c-4.687,0 -8.5,3.813 -8.5,8.5s3.813,8.5 8.5,8.5s8.5,-3.812 8.5,-8.5s-3.812,-8.5 -8.5,-8.5m0,13c-2.48,0 -4.5,-2.02 -4.5,-4.5s2.02,-4.5 4.5,-4.5s4.5,2.02 4.5,4.5s-2.02,4.5 -4.5,4.5" transform="translate(45.865, 201.316) scale(0.97368)" stroke-dashoffset="0" stroke-miterlimit="4" fill="#f1eff5" fill-rule="nonzero" id="svg_6"/>
  </g>
 </g>
</svg>